# xmcd
#
# Track frame offsets:
#	150
#	13715
#	29065
#	48271
#	65328
#	82085
#	98575
#	116919
#	134081
#	147866
#	158796
#	173812
#	189642
#	201994
#	217647
#	229494
#	242828
#	261192
#	274769
#	286222
#	295958
#	312656
#	325400
#
# Disc length: 4571 seconds
#
# Revision: 1
# Processed by: cddbd v1.5.2PL0 Copyright (c) Steve Scherf et al.
# Submitted via: audiograbber 1.83.01
#
DISCID=6911d917
DTITLE=Glenn Erickson - Diamondback Records Compilation 016
DYEAR=2015
DGENRE=Country
TTITLE0=That Jukebox Has Mind Of It´s Own -Allen Karl
TTITLE1=All My Exes Live In Texas -B. Jeff Stone
TTITLE2=Unspoken Words -Donna Cunningham
TTITLE3=The List -William Ray
TTITLE4=My Marie -Bobby G. Rice
TTITLE5=I Only See You -Ray Tombs
TTITLE6=85 mMiles Tp Greenville -Julie Richardson
TTITLE7=Heartache All I Got -John Dickie IV
TTITLE8=Love And Sabotage -David Starr
TTITLE9=Lord I Hope This Day Is Good -Rex Allen Jr
TTITLE10=That Ain´t Me -Phillip Clarkson
TTITLE11=Hippie Cowgirl -Wendy Ford
TTITLE12=Another Heavently Body -Glenn Erickson
TTITLE13=Castles In The Sky -Terry Gorka
TTITLE14=Ace In The Hole -Bruce Greaves
TTITLE15=Have I Told You Lately That I Love You -Peter Trenholm
TTITLE16=Leaving On A Jet Plane -Jackie Zimmer
TTITLE17=I Wish I Was Eighteen Again Ray Tombs
TTITLE18=It Don´t Get Better Than This -Ryan Sommerville
TTITLE19=Love Me With All Your Heart - Walter Walsh
TTITLE20=The Long Hard Road -Chris Anderson
TTITLE21=This Old Truck -John Covert
TTITLE22=My Reward -Glenn Erickson
EXTD=
EXTT0=
EXTT1=
EXTT2=
EXTT3=
EXTT4=
EXTT5=
EXTT6=
EXTT7=
EXTT8=
EXTT9=
EXTT10=
EXTT11=
EXTT12=
EXTT13=
EXTT14=
EXTT15=
EXTT16=
EXTT17=
EXTT18=
EXTT19=
EXTT20=
EXTT21=
EXTT22=
PLAYORDER=
